<svg width="18" height="18" viewBox="0 0 18 18" fill="none" xmlns="http://www.w3.org/2000/svg">
<path d="M6.46875 7.3125C6.46875 7.38709 6.43912 7.45863 6.38637 7.51138C6.33363 7.56412 6.26209 7.59375 6.1875 7.59375C6.11291 7.59375 6.04137 7.56412 5.98863 7.51138C5.93588 7.45863 5.90625 7.38709 5.90625 7.3125C5.90625 7.23791 5.93588 7.16637 5.98863 7.11363C6.04137 7.06088 6.11291 7.03125 6.1875 7.03125C6.26209 7.03125 6.33363 7.06088 6.38637 7.11363C6.43912 7.16637 6.46875 7.23791 6.46875 7.3125ZM6.46875 7.3125H6.1875M9.28125 7.3125C9.28125 7.38709 9.25162 7.45863 9.19887 7.51138C9.14613 7.56412 9.07459 7.59375 9 7.59375C8.92541 7.59375 8.85387 7.56412 8.80113 7.51138C8.74838 7.45863 8.71875 7.38709 8.71875 7.3125C8.71875 7.23791 8.74838 7.16637 8.80113 7.11363C8.85387 7.06088 8.92541 7.03125 9 7.03125C9.07459 7.03125 9.14613 7.06088 9.19887 7.11363C9.25162 7.16637 9.28125 7.23791 9.28125 7.3125ZM9.28125 7.3125H9M12.0938 7.3125C12.0938 7.38709 12.0641 7.45863 12.0114 7.51138C11.9586 7.56412 11.8871 7.59375 11.8125 7.59375C11.7379 7.59375 11.6664 7.56412 11.6136 7.51138C11.5609 7.45863 11.5312 7.38709 11.5312 7.3125C11.5312 7.23791 11.5609 7.16637 11.6136 7.11363C11.6664 7.06088 11.7379 7.03125 11.8125 7.03125C11.8871 7.03125 11.9586 7.06088 12.0114 7.11363C12.0641 7.16637 12.0938 7.23791 12.0938 7.3125ZM12.0938 7.3125H11.8125M1.6875 9.57C1.6875 10.77 2.52975 11.8155 3.71775 11.9903C4.533 12.1103 5.3565 12.2025 6.1875 12.267V15.75L9.3255 12.6128C9.48087 12.458 9.68976 12.3689 9.909 12.3638C11.3727 12.3277 12.8329 12.203 14.2815 11.9903C15.4702 11.8155 16.3125 10.7708 16.3125 9.56925V5.05575C16.3125 3.85425 15.4702 2.8095 14.2822 2.63475C12.5332 2.37804 10.7678 2.24944 9 2.25C7.206 2.25 5.442 2.38125 3.71775 2.63475C2.52975 2.8095 1.6875 3.855 1.6875 5.05575V9.56925V9.57Z" stroke="black" stroke-width="1.125" stroke-linecap="round" stroke-linejoin="round"/>
</svg>
