<svg width="18" height="18" viewBox="0 0 18 18" fill="none" xmlns="http://www.w3.org/2000/svg">
<path d="M7.875 4.5C6.76248 4.5 5.67495 4.8299 4.74992 5.44798C3.82489 6.06607 3.10392 6.94457 2.67818 7.97241C2.25244 9.00024 2.14104 10.1312 2.35809 11.2224C2.57513 12.3135 3.11086 13.3158 3.89753 14.1025C4.6842 14.8891 5.68648 15.4249 6.77762 15.6419C7.86876 15.859 8.99976 15.7476 10.0276 15.3218C11.0554 14.8961 11.9339 14.1751 12.552 13.2501C13.1701 12.3251 13.5 11.2375 13.5 10.125H7.875V4.5Z" stroke="black" stroke-width="1.125" stroke-linecap="round" stroke-linejoin="round"/>
<path d="M10.125 7.875H15.75C15.75 6.38316 15.1574 4.95242 14.1025 3.89752C13.0476 2.84263 11.6168 2.25 10.125 2.25V7.875Z" stroke="black" stroke-width="1.125" stroke-linecap="round" stroke-linejoin="round"/>
</svg>
