<svg width="16" height="16" viewBox="0 0 16 16" fill="none" xmlns="http://www.w3.org/2000/svg">
<path d="M9.90499 11.388C11.1471 11.2409 12.3676 10.9478 13.541 10.5147C12.5472 9.41387 11.9981 7.983 12.0003 6.5V6C12.0003 4.93913 11.5789 3.92172 10.8287 3.17157C10.0786 2.42143 9.06118 2 8.00032 2C6.93945 2 5.92204 2.42143 5.17189 3.17157C4.42175 3.92172 4.00032 4.93913 4.00032 6V6.5C4.00233 7.98309 3.45298 9.41397 2.45898 10.5147C3.61432 10.9413 4.83232 11.238 6.09565 11.388M9.90499 11.388C8.63964 11.5381 7.36099 11.5381 6.09565 11.388M9.90499 11.388C10.0011 11.6879 10.0249 12.0063 9.97471 12.3171C9.92448 12.628 9.80154 12.9227 9.6159 13.1771C9.43027 13.4314 9.18719 13.6384 8.90645 13.7811C8.6257 13.9238 8.31524 13.9981 8.00032 13.9981C7.6854 13.9981 7.37493 13.9238 7.09419 13.7811C6.81345 13.6384 6.57037 13.4314 6.38473 13.1771C6.1991 12.9227 6.07616 12.628 6.02593 12.3171C5.97569 12.0063 5.99958 11.6879 6.09565 11.388" stroke="black" stroke-linecap="round" stroke-linejoin="round"/>
</svg>
