<svg width="18" height="18" viewBox="0 0 18 18" fill="none" xmlns="http://www.w3.org/2000/svg">
<path d="M11.8115 7.875V4.5C11.8115 3.75408 11.5151 3.03871 10.9877 2.51126C10.4602 1.98382 9.74487 1.6875 8.99895 1.6875C8.25303 1.6875 7.53766 1.98382 7.01021 2.51126C6.48277 3.03871 6.18645 3.75408 6.18645 4.5V7.875M14.7035 6.38025L15.6507 15.3802C15.7032 15.879 15.3132 16.3125 14.8115 16.3125H3.18645C3.06811 16.3126 2.95106 16.2879 2.84291 16.2398C2.73477 16.1917 2.63794 16.1215 2.55872 16.0336C2.4795 15.9456 2.41966 15.842 2.38309 15.7295C2.34652 15.6169 2.33404 15.4979 2.34645 15.3802L3.29445 6.38025C3.31632 6.17292 3.41417 5.98103 3.56914 5.84157C3.72411 5.70211 3.92522 5.62496 4.1337 5.625H13.8642C14.2962 5.625 14.6585 5.95125 14.7035 6.38025ZM6.4677 7.875C6.4677 7.94959 6.43807 8.02113 6.38532 8.07387C6.33258 8.12662 6.26104 8.15625 6.18645 8.15625C6.11186 8.15625 6.04032 8.12662 5.98758 8.07387C5.93483 8.02113 5.9052 7.94959 5.9052 7.875C5.9052 7.80041 5.93483 7.72887 5.98758 7.67613C6.04032 7.62338 6.11186 7.59375 6.18645 7.59375C6.26104 7.59375 6.33258 7.62338 6.38532 7.67613C6.43807 7.72887 6.4677 7.80041 6.4677 7.875ZM12.0927 7.875C12.0927 7.94959 12.0631 8.02113 12.0103 8.07387C11.9576 8.12662 11.886 8.15625 11.8115 8.15625C11.7369 8.15625 11.6653 8.12662 11.6126 8.07387C11.5598 8.02113 11.5302 7.94959 11.5302 7.875C11.5302 7.80041 11.5598 7.72887 11.6126 7.67613C11.6653 7.62338 11.7369 7.59375 11.8115 7.59375C11.886 7.59375 11.9576 7.62338 12.0103 7.67613C12.0631 7.72887 12.0927 7.80041 12.0927 7.875Z" stroke="black" stroke-width="1.125" stroke-linecap="round" stroke-linejoin="round"/>
</svg>
