<svg width="18" height="18" viewBox="0 0 18 18" fill="none" xmlns="http://www.w3.org/2000/svg">
<path d="M1.6875 5.34375C1.6875 4.878 2.0655 4.5 2.53125 4.5H7.03125C7.497 4.5 7.875 4.878 7.875 5.34375V8.15625C7.875 8.622 7.497 9 7.03125 9H2.53125C2.30747 9 2.09286 8.91111 1.93463 8.75287C1.77639 8.59464 1.6875 8.38003 1.6875 8.15625V5.34375ZM10.6875 6.46875C10.6875 6.003 11.0655 5.625 11.5312 5.625H15.4688C15.9345 5.625 16.3125 6.003 16.3125 6.46875V12.6562C16.3125 13.122 15.9345 13.5 15.4688 13.5H11.5312C11.3075 13.5 11.0929 13.4111 10.9346 13.2529C10.7764 13.0946 10.6875 12.88 10.6875 12.6562V6.46875ZM2.8125 12.0938C2.8125 11.628 3.1905 11.25 3.65625 11.25H7.59375C8.0595 11.25 8.4375 11.628 8.4375 12.0938V13.7812C8.4375 14.247 8.0595 14.625 7.59375 14.625H3.65625C3.43247 14.625 3.21786 14.5361 3.05963 14.3779C2.90139 14.2196 2.8125 14.005 2.8125 13.7812V12.0938Z" stroke="black" stroke-width="1.125" stroke-linecap="round" stroke-linejoin="round"/>
</svg>
